<?xml version="1.0" standalone="no"?>
<!DOCTYPE svg PUBLIC "-//W3C//DTD SVG 20010904//EN"
 "http://www.w3.org/TR/2001/REC-SVG-20010904/DTD/svg10.dtd">
<svg version="1.0" xmlns="http://www.w3.org/2000/svg"
 width="700.000000pt" height="700.000000pt" viewBox="0 0 700.000000 700.000000"
 preserveAspectRatio="xMidYMid meet">
<metadata>
Created by potrace 1.14, written by Peter Selinger 2001-2017
</metadata>
<g transform="translate(0.000000,700.000000) scale(0.100000,-0.100000)"
fill="#000000" stroke="none">
<path d="M3598 6965 c-2 -1 -39 -5 -83 -9 -113 -9 -252 -33 -377 -66 -93 -24
-109 -26 -120 -13 -6 8 -35 26 -62 41 -42 21 -67 26 -141 28 -135 5 -257 -34
-332 -103 -28 -26 -30 -34 -32 -103 -4 -138 -7 -164 -18 -167 -41 -14 -251
-190 -373 -312 -172 -172 -276 -300 -415 -511 -423 -642 -688 -1428 -750
-2225 -20 -256 -20 -608 0 -855 12 -147 15 -174 19 -205 3 -16 8 -52 11 -80 5
-44 10 -75 29 -190 16 -92 50 -245 81 -355 218 -789 673 -1346 1326 -1623 204
-87 465 -157 684 -183 22 -3 49 -7 61 -9 122 -26 819 -26 950 -1 31 6 171 16
304 21 186 8 270 13 463 31 107 10 315 33 346 39 22 4 87 13 136 20 23 3 52 7
65 10 13 3 40 7 60 10 20 3 47 8 60 10 14 3 61 12 105 21 44 8 93 18 110 21
61 10 389 94 507 129 68 20 131 39 141 42 17 4 18 12 14 66 -19 208 -187 395
-365 405 -8 1 2 20 25 49 152 182 237 375 288 647 13 69 13 273 0 342 -46 240
-216 443 -476 570 -46 22 -100 47 -120 56 -53 23 -273 75 -354 83 -128 14
-386 9 -575 -11 -69 -8 -222 -26 -250 -30 -14 -2 -50 -7 -80 -10 -30 -3 -66
-7 -80 -10 -23 -4 -68 -11 -137 -19 -33 -5 -183 -25 -233 -32 -19 -3 -60 -9
-90 -14 -70 -12 -99 -17 -185 -30 -96 -15 -321 -66 -371 -84 -106 -37 -184
-95 -211 -155 -33 -77 -9 -283 47 -398 57 -115 179 -193 303 -193 33 0 272 85
392 140 168 77 529 174 730 196 33 3 62 8 65 9 3 2 46 6 95 10 50 5 106 9 125
11 19 2 159 6 310 9 347 6 436 -9 518 -88 97 -94 58 -235 -154 -558 -150 -229
-294 -376 -499 -511 -83 -55 -253 -148 -270 -148 -6 0 -15 -4 -21 -9 -23 -23
-209 -85 -319 -106 -143 -27 -195 -35 -345 -50 -62 -6 -277 -6 -320 1 -301 46
-487 145 -632 335 -130 171 -198 356 -242 659 -23 160 -24 655 -1 940 2 25 6
92 10 150 9 150 12 190 30 420 3 36 8 88 10 115 8 74 14 141 21 220 3 39 7 84
8 100 6 58 19 180 21 205 2 14 6 59 9 100 4 41 9 86 11 100 2 14 7 54 10 90 4
36 8 76 10 90 2 14 7 59 11 100 8 88 9 104 18 190 4 36 9 85 11 110 3 25 7 68
9 95 6 56 12 126 21 230 3 39 8 90 10 115 3 25 7 77 10 115 3 39 7 96 10 128
3 31 7 83 10 115 3 31 7 102 10 157 3 55 7 129 10 165 10 155 17 369 17 558
l0 203 26 11 c15 5 32 11 37 12 6 1 20 6 33 10 12 4 72 18 133 30 135 28 362
33 479 11 392 -76 698 -335 940 -798 150 -287 279 -659 325 -937 3 -19 8 -42
10 -50 2 -8 7 -42 11 -75 3 -33 8 -73 10 -90 10 -96 15 -170 15 -264 1 -160
-33 -244 -194 -492 -110 -169 -137 -226 -131 -269 20 -123 119 -187 302 -194
166 -6 272 33 379 141 118 118 209 362 239 638 21 193 26 552 10 660 -31 204
-93 439 -151 570 -7 17 -27 63 -44 104 -29 68 -96 201 -166 326 -43 78 -226
352 -291 436 -245 317 -515 544 -817 689 -138 66 -188 84 -372 136 -117 33
-144 37 -267 39 -76 1 -139 1 -140 0z m-1104 -1257 c-3 -111 -15 -410 -18
-478 -7 -121 -17 -287 -21 -325 -2 -22 -7 -80 -10 -130 -16 -240 -24 -342 -30
-395 -2 -19 -7 -73 -10 -120 -4 -47 -8 -101 -10 -120 -2 -19 -6 -73 -9 -120
-4 -47 -9 -101 -11 -120 -2 -19 -7 -69 -10 -110 -3 -41 -8 -91 -10 -110 -2
-20 -6 -72 -9 -115 -3 -44 -8 -105 -10 -135 -3 -30 -8 -91 -11 -135 -3 -44 -8
-109 -10 -144 -29 -391 -39 -641 -39 -981 0 -274 6 -459 18 -545 2 -16 7 -61
11 -100 3 -38 8 -77 10 -85 2 -8 7 -35 10 -60 21 -159 83 -385 142 -519 13
-30 21 -56 19 -58 -2 -2 -48 30 -103 71 -200 150 -344 316 -456 526 -103 193
-170 406 -215 690 -20 122 -26 169 -38 300 -3 36 -7 81 -9 100 -22 234 -23
798 -1 975 2 17 7 62 11 100 3 39 8 81 10 95 2 14 6 50 10 80 3 30 10 80 16
110 5 30 16 98 24 150 22 133 25 149 36 200 6 25 13 62 15 82 4 28 53 234 78
328 60 224 201 544 341 775 62 102 188 286 217 317 7 7 26 30 41 51 15 20 29
37 31 37 1 0 1 -37 0 -82z"/>
</g>
</svg>
